<svg width="46" height="46" viewBox="0 0 46 46" fill="none" xmlns="http://www.w3.org/2000/svg">
<rect x="3" y="3" width="40" height="40" rx="20" fill="#F2F4F7"/>
<path d="M23.4167 15.4974H19.5C18.0999 15.4974 17.3998 15.4974 16.865 15.7699C16.3946 16.0096 16.0122 16.392 15.7725 16.8624C15.5 17.3972 15.5 18.0973 15.5 19.4974V26.4974C15.5 27.8975 15.5 28.5976 15.7725 29.1324C16.0122 29.6028 16.3946 29.9852 16.865 30.2249C17.3998 30.4974 18.0999 30.4974 19.5 30.4974H27.1667C27.9416 30.4974 28.3291 30.4974 28.647 30.4122C29.5098 30.181 30.1836 29.5072 30.4148 28.6444C30.5 28.3265 30.5 27.939 30.5 27.1641M28.8333 19.6641V14.6641M26.3333 17.1641H31.3333M21.75 20.0807C21.75 21.0012 21.0038 21.7474 20.0833 21.7474C19.1629 21.7474 18.4167 21.0012 18.4167 20.0807C18.4167 19.1603 19.1629 18.4141 20.0833 18.4141C21.0038 18.4141 21.75 19.1603 21.75 20.0807ZM25.4917 22.9292L18.4426 29.3374C18.0461 29.6979 17.8479 29.8781 17.8304 30.0342C17.8152 30.1695 17.867 30.3038 17.9693 30.3937C18.0873 30.4974 18.3552 30.4974 18.8911 30.4974H26.7133C27.9126 30.4974 28.5123 30.4974 28.9833 30.2959C29.5745 30.043 30.0456 29.5719 30.2985 28.9807C30.5 28.5097 30.5 27.91 30.5 26.7107C30.5 26.3072 30.5 26.1054 30.4559 25.9175C30.4005 25.6814 30.2941 25.4602 30.1444 25.2694C30.0252 25.1176 29.8677 24.9915 29.5526 24.7394L27.2215 22.8746C26.9062 22.6223 26.7485 22.4962 26.5748 22.4517C26.4218 22.4124 26.2607 22.4175 26.1104 22.4663C25.94 22.5217 25.7905 22.6575 25.4917 22.9292Z" stroke="#475467" stroke-width="1.66667" stroke-linecap="round" stroke-linejoin="round"/>
<rect x="3" y="3" width="40" height="40" rx="20" stroke="#F9FAFB" stroke-width="6"/>
</svg>
