<svg width="16" height="16" viewBox="0 0 16 16" fill="none" xmlns="http://www.w3.org/2000/svg">
<g id="icons/trash_2_16" clip-path="url(#clip0_26_16651)">
<g id="Union">
<path fill-rule="evenodd" clip-rule="evenodd" d="M1 3.6364C1 3.23474 1.3134 2.90913 1.7 2.90913H14.3C14.6866 2.90913 15 3.23474 15 3.6364C15 4.03806 14.6866 4.36367 14.3 4.36367H1.7C1.3134 4.36367 1 4.03806 1 3.6364Z" fill="#BCFF87"/>
<path fill-rule="evenodd" clip-rule="evenodd" d="M6.6 1.45458C6.41435 1.45458 6.2363 1.53121 6.10503 1.6676C5.97375 1.80399 5.9 1.98897 5.9 2.18186V2.90913H10.1V2.18186C10.1 1.98897 10.0263 1.80399 9.89497 1.6676C9.7637 1.53121 9.58565 1.45458 9.4 1.45458H6.6ZM11.5 2.90913V2.18186C11.5 1.6032 11.2788 1.04825 10.8849 0.639078C10.4911 0.229908 9.95695 3.8147e-05 9.4 3.8147e-05H6.6C6.04305 3.8147e-05 5.5089 0.229908 5.11508 0.639078C4.72125 1.04825 4.5 1.6032 4.5 2.18186V2.90913H3.1C2.7134 2.90913 2.4 3.23474 2.4 3.6364V13.8182C2.4 14.3969 2.62125 14.9518 3.01508 15.361C3.4089 15.7702 3.94305 16 4.5 16H11.5C12.057 16 12.5911 15.7702 12.9849 15.361C13.3788 14.9518 13.6 14.3969 13.6 13.8182V3.6364C13.6 3.23474 13.2866 2.90913 12.9 2.90913H11.5ZM3.8 4.36367V13.8182C3.8 14.0111 3.87375 14.1961 4.00503 14.3325C4.1363 14.4689 4.31435 14.5455 4.5 14.5455H11.5C11.6857 14.5455 11.8637 14.4689 11.995 14.3325C12.1263 14.1961 12.2 14.0111 12.2 13.8182V4.36367H3.8Z" fill="#BCFF87"/>
</g>
</g>
<defs>
<clipPath id="clip0_26_16651">
<rect width="16" height="16" fill="black"/>
</clipPath>
</defs>
</svg>
