<svg width="12" height="12" viewBox="0 0 12 12" fill="none" xmlns="http://www.w3.org/2000/svg">
<path d="M11.8125 5.75C11.8125 5.99609 11.5938 6.1875 11.375 6.1875H6.5625V11C6.5625 11.2461 6.34375 11.4648 6.125 11.4648C5.87891 11.4648 5.6875 11.2461 5.6875 11V6.1875H0.875C0.628906 6.1875 0.4375 5.99609 0.4375 5.77734C0.4375 5.53125 0.628906 5.3125 0.875 5.3125H5.6875V0.5C5.6875 0.28125 5.87891 0.0898438 6.125 0.0898438C6.34375 0.0898438 6.5625 0.28125 6.5625 0.5V5.3125H11.375C11.5938 5.3125 11.8125 5.53125 11.8125 5.75Z" fill="black" fill-opacity="0.6"/>
</svg>
