<svg width="14" height="14" viewBox="0 0 14 14" fill="none" xmlns="http://www.w3.org/2000/svg">
<path d="M7.00016 13.6654C8.76827 13.6654 10.464 12.963 11.7142 11.7127C12.9645 10.4625 13.6668 8.76681 13.6668 6.9987C13.6668 5.23059 12.9645 3.5349 11.7142 2.28465C10.464 1.03441 8.76827 0.332031 7.00016 0.332031C5.23205 0.332031 3.53636 1.03441 2.28612 2.28465C1.03588 3.5349 0.333496 5.23059 0.333496 6.9987C0.333496 8.76681 1.03588 10.4625 2.28612 11.7127C3.53636 12.963 5.23205 13.6654 7.00016 13.6654ZM9.94287 5.77474L6.60954 9.10807C6.36475 9.35287 5.96891 9.35287 5.72673 9.10807L4.06006 7.44141C3.81527 7.19661 3.81527 6.80078 4.06006 6.55859C4.30485 6.31641 4.70068 6.3138 4.94287 6.55859L6.16683 7.78255L9.05746 4.88932C9.30225 4.64453 9.69808 4.64453 9.94027 4.88932C10.1825 5.13411 10.1851 5.52995 9.94027 5.77214L9.94287 5.77474Z" fill="#0E0D0D"/>
</svg>
